<?xml version="1.0" standalone="no"?>
<!DOCTYPE svg PUBLIC "-//W3C//DTD SVG 20010904//EN"
 "http://www.w3.org/TR/2001/REC-SVG-20010904/DTD/svg10.dtd">
<svg version="1.0" xmlns="http://www.w3.org/2000/svg"
 width="400.000000pt" height="400.000000pt" viewBox="0 0 400.000000 400.000000"
 preserveAspectRatio="xMidYMid meet">
<metadata>
Created by potrace 1.11, written by Peter Selinger 2001-2013
</metadata>
<g transform="translate(0.000000,400.000000) scale(0.100000,-0.100000)"
fill="#000000" stroke="none">
<path d="M2024 3446 c-808 -485 -963 -577 -1269 -752 -80 -46 -146 -92 -172
-119 -77 -83 -74 -47 -71 -896 3 -751 3 -754 25 -794 41 -76 91 -111 438 -302
55 -31 120 -68 145 -83 25 -16 86 -51 135 -78 50 -27 162 -91 250 -142 311
-181 388 -221 441 -232 93 -19 110 -11 544 237 74 43 180 103 235 134 132 75
243 139 395 226 69 40 141 80 160 90 73 36 140 95 167 148 l28 52 0 765 0 765
-27 51 c-35 67 -67 92 -235 188 -76 43 -177 101 -224 129 l-86 50 -6 255 c-4
140 -8 339 -8 441 -1 102 -4 229 -8 282 l-6 95 -851 -510z m25 -451 c16 -8 31
-22 35 -30 3 -9 6 -83 6 -165 l0 -148 81 -70 c132 -115 296 -186 462 -198 l82
-7 133 107 c147 117 174 127 211 80 42 -53 26 -86 -82 -169 -40 -30 -89 -70
-110 -88 l-37 -32 11 -60 c34 -193 105 -359 192 -452 28 -30 37 -33 86 -33 31
0 67 -6 81 -13 34 -17 47 -57 31 -95 -17 -40 -58 -56 -123 -49 l-51 6 -71 -72
c-90 -91 -150 -180 -176 -264 -20 -64 -25 -163 -11 -211 3 -13 53 -70 110
-126 116 -115 126 -140 77 -183 -46 -39 -69 -31 -155 53 -111 107 -113 108
-179 100 -97 -11 -301 -55 -384 -83 -81 -27 -177 -82 -217 -124 -19 -20 -21
-34 -21 -123 0 -89 -2 -102 -22 -123 -28 -30 -77 -31 -105 0 -17 18 -22 41
-28 130 l-7 107 -81 65 c-92 74 -237 152 -342 185 -41 13 -109 24 -165 26
l-95 5 -113 -92 c-94 -77 -120 -93 -148 -93 -45 0 -68 24 -68 70 0 31 6 42 34
63 19 14 73 59 121 99 l87 72 9 68 c11 94 8 236 -6 307 -15 72 -61 171 -95
208 -24 26 -30 27 -116 27 -88 0 -93 1 -121 30 -33 33 -33 59 2 95 18 18 31
20 122 18 l102 -2 39 51 c84 111 136 260 136 393 l0 80 -105 105 c-91 90 -105
109 -105 137 0 39 30 73 65 73 26 0 53 -21 180 -139 l80 -74 110 6 c196 11
319 46 431 126 113 80 111 74 117 238 3 78 11 152 17 163 9 17 35 35 58 39 2
1 16 -6 31 -14z"/>
<path d="M1850 2405 c-76 -39 -191 -77 -307 -101 -46 -10 -83 -21 -83 -24 0
-4 22 -28 50 -54 54 -51 61 -52 175 -36 75 11 173 53 218 94 24 22 27 32 27
91 0 36 -3 65 -7 64 -5 0 -37 -16 -73 -34z"/>
<path d="M2080 2371 l0 -70 43 -35 c70 -57 153 -103 221 -121 l65 -18 48 36
c27 19 56 44 66 55 18 19 17 20 -56 36 -85 19 -210 77 -308 142 -37 24 -69 44
-73 44 -3 0 -6 -31 -6 -69z"/>
<path d="M1313 2096 c-12 -46 -42 -126 -67 -176 -25 -51 -46 -99 -46 -106 0
-11 18 -14 74 -14 l73 0 26 38 c39 56 67 126 74 183 6 50 6 50 -48 105 -29 30
-56 54 -60 54 -3 0 -15 -38 -26 -84z"/>
<path d="M2602 2088 c-95 -80 -96 -83 -47 -184 64 -130 110 -164 224 -164 39
0 71 2 71 4 0 3 -15 36 -34 73 -55 110 -83 183 -101 266 -9 42 -20 77 -24 77
-3 -1 -44 -33 -89 -72z"/>
<path d="M1865 2090 c-22 -11 -64 -25 -92 -31 -29 -7 -53 -16 -53 -20 0 -13
182 -179 191 -173 11 6 12 244 2 243 -5 0 -26 -9 -48 -19z"/>
<path d="M2070 2011 c0 -49 -3 -103 -6 -120 -5 -23 -3 -31 7 -31 18 1 174 129
174 143 0 7 -18 21 -40 32 -22 11 -57 30 -78 43 -21 12 -42 22 -48 22 -5 0 -9
-40 -9 -89z"/>
<path d="M1561 1874 c-17 -37 -31 -70 -31 -74 0 -8 211 -23 219 -15 6 6 -115
132 -141 146 -13 7 -22 -3 -47 -57z"/>
<path d="M2351 1887 c-12 -13 -46 -42 -76 -63 -30 -21 -53 -43 -51 -49 4 -13
226 -23 226 -10 0 6 -11 31 -24 56 -12 26 -26 56 -29 68 -7 27 -18 27 -46 -2z"/>
<path d="M1190 1651 c0 -5 8 -29 19 -53 28 -67 50 -175 57 -287 8 -117 4 -115
94 -44 l60 48 -3 101 c-2 90 -6 107 -35 166 l-32 65 -52 7 c-74 8 -108 8 -108
-3z"/>
<path d="M1535 1640 c-5 -11 40 -180 49 -180 7 0 70 48 175 137 17 14 23 25
16 31 -10 10 -235 21 -240 12z"/>
<path d="M2180 1604 c0 -7 39 -48 88 -93 99 -92 83 -93 153 18 22 35 37 67 32
71 -4 5 -68 10 -140 12 -99 3 -133 1 -133 -8z"/>
<path d="M2649 1555 c-85 -67 -159 -177 -159 -234 0 -17 131 -146 148 -146 3
0 13 32 23 70 25 101 59 172 124 259 32 42 56 78 54 80 -2 2 -34 6 -70 8 -66
5 -67 5 -120 -37z"/>
<path d="M1797 1433 c-53 -43 -96 -83 -97 -89 0 -6 20 -19 45 -29 25 -9 68
-32 95 -51 27 -18 51 -30 54 -26 7 11 11 260 4 267 -3 3 -49 -29 -101 -72z"/>
<path d="M2056 1493 c-11 -12 -7 -243 5 -243 6 0 23 9 38 20 15 10 50 28 77
38 27 11 49 24 49 30 0 15 -161 163 -169 155z"/>
<path d="M1480 1179 c-19 -17 -50 -43 -68 -57 -18 -14 -31 -29 -29 -35 1 -5
45 -20 97 -33 107 -27 200 -69 313 -144 43 -27 79 -50 81 -50 2 0 6 30 9 68 4
64 3 70 -30 119 -59 88 -196 163 -297 163 -32 0 -49 -8 -76 -31z"/>
<path d="M2301 1194 c-105 -28 -207 -98 -241 -165 -14 -26 -20 -58 -20 -104 0
-36 2 -65 5 -65 3 0 31 13 63 29 71 36 307 109 377 117 90 11 90 15 -15 114
-52 49 -99 89 -105 89 -5 0 -34 -7 -64 -15z"/>
</g>
</svg>
